<svg width="235" height="671" viewBox="0 0 235 671" fill="none" xmlns="http://www.w3.org/2000/svg">
<path d="M146.917 238.881L144.806 260.044C144.806 260.044 143.893 277.615 141 281.501C138.128 285.366 59.7755 285.854 59.7755 285.854C59.7755 285.854 54.5982 260.806 50.1389 238.881H146.917Z" fill="#FFB6B6"/>
<path d="M107.68 107.017C129.915 107.017 147.939 90.8397 147.939 70.8837C147.939 50.9278 129.915 34.7502 107.68 34.7502C85.4458 34.7502 67.4211 50.9278 67.4211 70.8837C67.4211 90.8397 85.4458 107.017 107.68 107.017Z" fill="#FFB6B6"/>
<path d="M128.965 128.974C128.965 128.974 148.329 121.451 160.084 140.391C171.84 159.331 154.875 225.158 152.494 235.842C150.114 246.525 117.463 297.451 117.463 297.451L84.8342 291.594L128.965 128.974Z" fill="#964F9F"/>
<path d="M182.078 647.189H167.183L160.096 595.625H182.078V647.189Z" fill="#FFB6B6"/>
<path d="M189.939 670.35H179.258L177.352 661.299L172.469 670.35H144.14C142.782 670.35 141.46 669.96 140.366 669.238C139.272 668.516 138.464 667.498 138.06 666.335C137.656 665.171 137.677 663.922 138.12 662.77C138.562 661.618 139.404 660.623 140.521 659.931L163.144 645.908V636.758L186.939 638.032L189.939 670.35Z" fill="#2F2E41"/>
<path d="M96.47 635.758L82.4461 640.264L56.4082 593.864L77.1058 587.215L96.47 635.758Z" fill="#FFB6B6"/>
<path d="M114.483 648.859L105.257 653.689L98.5286 646.734L99.3922 656.76L74.9223 669.572C73.7494 670.186 72.3885 670.448 71.0382 670.318C69.6879 670.189 68.419 669.676 67.4167 668.854C66.4144 668.031 65.7312 666.943 65.4668 665.748C65.2025 664.552 65.3707 663.312 65.9472 662.209L77.6154 639.865L72.4783 631.961L93.7476 622.301L114.483 648.859Z" fill="#2F2E41"/>
<path d="M184.897 615.684H184.718L181.552 523.021C183.6 519.474 184.64 515.527 184.578 511.532C184.517 507.537 183.355 503.618 181.197 500.124L180.744 499.387L181.919 494.498C183.429 488.216 182.736 481.668 179.936 475.754L176.983 389.316C187.535 327.939 138.073 279.88 138.073 279.88H58.9345L45.7448 337.783L3.51678 482.664C1.64495 485.218 0.480253 488.136 0.119924 491.175C-0.240404 494.214 0.214072 497.287 1.44534 500.137L61.4164 606.621L60.9539 606.831C60.0766 607.27 59.4214 607.996 59.1242 608.857C58.827 609.718 58.9108 610.649 59.358 611.456C60.1419 613.495 62.1276 614.729 63.793 614.213L87.1701 603.601C88.0475 603.162 88.7027 602.436 88.9998 601.575C89.297 600.714 89.2133 599.783 88.766 598.976C87.9822 596.937 85.9965 595.703 84.331 596.219L81.626 597.447L63.5317 517.401L62.8915 501.068L64.2104 482.54L103.12 403.213L126.202 505.701L160.219 616.715C159.569 617.244 159.113 617.937 158.91 618.703C158.708 619.469 158.769 620.272 159.086 621.006C159.403 621.741 159.96 622.371 160.685 622.815C161.409 623.259 162.267 623.496 163.144 623.493H184.897C186.05 623.493 187.157 623.082 187.973 622.349C188.789 621.617 189.247 620.624 189.247 619.589C189.247 618.553 188.789 617.56 187.973 616.827C187.157 616.095 186.05 615.684 184.897 615.684Z" fill="#2F2E41"/>
<path d="M128.34 113.931L96.0279 117.343C94.6652 117.486 93.3865 118.008 92.37 118.835C91.3534 119.662 90.6497 120.753 90.3568 121.956L85.2182 143.06L53.1855 176.917C53.1855 176.917 41.683 196.275 45.9964 218.213C50.3098 240.151 52.2054 256.452 52.2054 256.452C52.2054 256.452 138.132 285.368 141.008 281.497C143.884 277.625 144.817 260.04 144.817 260.04L156.319 145.187C156.319 145.187 143.379 125.83 136.19 125.83C131.55 125.689 132.145 116.317 128.34 113.931Z" fill="#964F9F"/>
<path d="M51.3319 263.513C55.8631 263.513 59.5364 259.557 59.5364 254.677C59.5364 249.797 55.8631 245.841 51.3319 245.841C46.8007 245.841 43.1274 249.797 43.1274 254.677C43.1274 259.557 46.8007 263.513 51.3319 263.513Z" fill="#964F9F"/>
<path d="M107.543 372.681C109.253 371.154 110.569 369.309 111.398 367.276C112.228 365.243 112.551 363.072 112.344 360.915C112.138 358.758 111.407 356.668 110.203 354.791C108.999 352.915 107.351 351.299 105.376 350.056L132.31 233.061L103.251 241.289L81.5813 354.473C79.4751 357.589 78.7159 361.291 79.4474 364.877C80.179 368.462 82.3507 371.682 85.5507 373.926C88.7508 376.171 92.757 377.284 96.8102 377.054C100.863 376.825 104.682 375.269 107.543 372.681Z" fill="#FFB6B6"/>
<path d="M89.3687 36.342C103.328 27.7252 115.621 26.4126 125.719 28.8565C127.028 27.0392 128.864 25.5763 131.03 24.6246C138.905 6.81363 162.873 -3.88278 183.441 1.31692C204.143 6.55025 218.427 27.1316 214.531 46.1156C212.117 57.8828 203.866 68.0724 200.547 79.6608C194.123 102.094 209.795 127.791 234.312 135.022C211.099 139.205 185.547 126.479 177.219 106.587C173.175 96.9248 172.931 86.3756 172.416 76.0644C171.903 65.7532 170.977 55.132 165.77 45.9288C162.28 39.6165 156.484 34.5693 149.349 31.6294C149.988 33.4031 150.147 35.2878 149.815 37.1278C149.482 38.9679 148.667 40.7107 147.436 42.2122C152.88 48.3328 155.843 54.952 155.843 58.916C167.152 77.4669 150.98 93.4014 130.311 103.551C122.067 107.621 112.547 109.11 103.255 107.785L102.391 104.471L101.219 107.456L97.3079 117.461C92.7961 119.42 88.3232 121.567 83.8896 123.903C85.574 116.804 86.9367 109.717 87.8744 102.788C89.1726 93.3582 84.6471 79.3189 81.3827 70.7812C79.3586 65.5194 78.3199 59.9929 78.3086 54.4263V54.1829L75.13 63.3465L63.5579 58.9159C65.7108 47.8328 63.5579 35.2508 89.3687 36.342Z" fill="#2F2E41"/>
</svg>
